<svg width="25" height="25" viewBox="0 0 25 25" fill="none" xmlns="http://www.w3.org/2000/svg">
<path d="M12.1509 0.489014C5.52388 0.489014 0.150879 5.86201 0.150879 12.489C0.150879 19.116 5.52388 24.489 12.1509 24.489C18.7779 24.489 24.1509 19.116 24.1509 12.489C24.1509 5.86201 18.7779 0.489014 12.1509 0.489014ZM14.3689 19.105C14.0149 19.174 13.9009 18.956 13.9009 18.769V16.848C13.9009 16.195 13.6719 15.769 13.4199 15.552C14.9799 15.379 16.6179 14.787 16.6179 12.098C16.6179 11.333 16.3449 10.709 15.8969 10.219C15.9689 10.042 16.2089 9.33001 15.8279 8.36601C15.8279 8.36601 15.2409 8.17801 13.9049 9.08301C13.3439 8.92901 12.7459 8.85201 12.1509 8.84901C11.5559 8.85201 10.9579 8.92901 10.3979 9.08401C9.06088 8.17901 8.47288 8.36701 8.47288 8.36701C8.09388 9.33101 8.33288 10.043 8.40588 10.219C7.95788 10.709 7.68388 11.333 7.68388 12.098C7.68388 14.78 9.31788 15.38 10.8729 15.557C10.6729 15.732 10.4919 16.04 10.4289 16.493C10.0289 16.672 9.01588 16.981 8.39188 15.911C8.39188 15.911 8.02188 15.239 7.31888 15.189C7.31888 15.189 6.63588 15.18 7.27088 15.615C7.27088 15.615 7.73088 15.83 8.04788 16.639C8.04788 16.639 8.45288 17.889 10.4009 17.465V18.768C10.4009 18.953 10.2879 19.17 9.93888 19.105C7.15688 18.18 5.15088 15.556 5.15088 12.464C5.15088 8.59701 8.28588 5.46401 12.1509 5.46401C16.0159 5.46401 19.1509 8.59701 19.1509 12.464C19.1509 15.555 17.1479 18.179 14.3689 19.105Z" fill="#979797"/>
</svg>
