<svg width="25" height="25" viewBox="0 0 25 25" fill="none" xmlns="http://www.w3.org/2000/svg">
<path d="M12.1509 0.489014C5.52388 0.489014 0.150879 5.86201 0.150879 12.489C0.150879 19.116 5.52388 24.489 12.1509 24.489C18.7779 24.489 24.1509 19.116 24.1509 12.489C24.1509 5.86201 18.7779 0.489014 12.1509 0.489014ZM10.1509 16.489H8.15088V10.489H10.1509V16.489ZM9.15088 9.59801C8.54388 9.59801 8.05088 9.10201 8.05088 8.48901C8.05088 7.87701 8.54288 7.38001 9.15088 7.38001C9.75888 7.38001 10.2509 7.87701 10.2509 8.48901C10.2509 9.10201 9.75788 9.59801 9.15088 9.59801ZM17.1509 16.489H15.1529V13.628C15.1529 11.747 13.1509 11.906 13.1509 13.628V16.489H11.1509V10.489H13.1509V11.582C14.0229 9.96601 17.1509 9.84601 17.1509 13.13V16.489Z" fill="#979797"/>
</svg>
