<svg width="108" height="49" viewBox="0 0 108 49" fill="none" xmlns="http://www.w3.org/2000/svg">
<path d="M5.67141 26.154C5.67141 26.5308 5.68284 26.9077 5.66855 27.2845C5.63569 28.1823 4.97131 28.9217 4.11834 29.0231C3.13106 29.1401 2.32381 28.6448 2.07949 27.7598C2.03092 27.5842 2.00377 27.3958 2.00377 27.2131C1.99948 18.8172 1.99805 10.4213 2.00377 2.02545C2.0052 0.690842 3.15821 -0.131334 4.42838 0.274044C5.17277 0.512418 5.66855 1.20613 5.67141 2.04543C5.67712 3.69549 5.67284 5.34555 5.67284 6.99561C5.67284 8.37161 5.67284 9.74904 5.67284 11.125C5.67284 11.2107 5.67284 11.2963 5.67284 11.3877C6.01145 11.018 6.31007 10.6397 6.66297 10.3186C8.72468 8.4387 11.1307 7.6936 13.8882 8.22887C16.61 8.75701 18.6103 10.3072 19.9876 12.678C21.1935 14.7549 21.5793 17.0202 21.4464 19.3925C21.3192 21.672 20.6606 23.7746 19.2747 25.6073C17.7216 27.6599 15.6628 28.876 13.0781 29.1144C10.1777 29.3828 7.78455 28.3322 5.81571 26.2354C5.78428 26.2011 5.76142 26.1583 5.73427 26.1183C5.71284 26.1312 5.69141 26.1426 5.67141 26.154ZM11.4679 25.7672C13.7311 25.7458 15.3427 24.9036 16.5343 23.2792C17.3944 22.1074 17.8145 20.7685 17.9245 19.3268C18.0502 17.6953 17.8259 16.1238 17.0229 14.6821C15.8799 12.6267 14.1383 11.4876 11.7537 11.4776C9.36476 11.4676 7.56166 12.5624 6.43865 14.6407C5.17705 16.9731 5.12562 19.4396 6.12004 21.8661C7.12589 24.3198 9.00329 25.6644 11.4679 25.7672Z" fill="#29C5BF"/>
<path d="M76.5367 17.7167C76.6796 17.5883 76.7696 17.5112 76.8567 17.4313C79.8757 14.6578 82.8961 11.8844 85.9151 9.11101C86.258 8.79556 86.6338 8.54006 87.1095 8.47297C87.9039 8.36163 88.4326 8.76844 88.8398 9.38079C89.2027 9.92605 89.177 10.5827 88.7812 11.1208C88.6483 11.3006 88.4869 11.4633 88.3197 11.6118C86.1751 13.5274 84.0263 15.4372 81.8788 17.3499C81.8131 17.4084 81.7502 17.4684 81.6788 17.5355C82.6632 18.6017 83.6334 19.6551 84.6049 20.7071C86.0965 22.3229 87.5853 23.9401 89.0784 25.5545C89.557 26.0727 89.7999 26.6664 89.6084 27.3673C89.4156 28.0753 88.9026 28.4964 88.2183 28.6776C87.5625 28.8504 86.9824 28.6748 86.5066 28.1681C83.9963 25.4974 81.4816 22.8325 78.9699 20.1647C78.937 20.1304 78.9156 20.0833 78.8827 20.0334C78.797 20.1048 78.7413 20.1476 78.6884 20.1947C78.0412 20.7756 77.3997 21.3637 76.7453 21.9375C76.5924 22.0717 76.5295 22.2059 76.531 22.4114C76.5395 23.8759 76.5324 25.3418 76.5381 26.8063C76.5395 27.3801 76.3895 27.8883 75.9595 28.288C75.3865 28.819 74.7136 28.916 74.0063 28.642C73.3148 28.375 72.9476 27.8312 72.8776 27.0918C72.869 27.0033 72.869 26.9148 72.869 26.8263C72.869 18.5989 72.869 10.3714 72.8676 2.14251C72.8676 1.7043 72.9476 1.29749 73.2105 0.934937C73.6692 0.304031 74.4564 0.0328288 75.2279 0.246937C75.9352 0.442489 76.4624 1.0948 76.5224 1.85417C76.5338 2.0069 76.5367 2.15964 76.5367 2.31237C76.5367 7.31964 76.5367 12.3269 76.5367 17.3342C76.5367 17.4384 76.5367 17.5426 76.5367 17.7167Z" fill="#555555"/>
<path d="M100.153 29.1601C98.7097 29.1387 96.9166 28.7876 95.2606 27.8826C94.2348 27.3216 93.379 26.5594 92.6732 25.6316C92.1388 24.9293 92.1902 24.09 92.7689 23.5262C93.449 22.8653 94.332 22.7911 95.0392 23.3606C95.3064 23.5762 95.535 23.8431 95.7779 24.0886C97.3195 25.6402 99.1912 26.3139 101.361 26.1626C102.166 26.1069 102.917 25.8657 103.625 25.4632C104.923 24.7252 105.061 22.47 103.725 21.5721C102.872 20.9983 101.912 20.6786 100.943 20.3731C99.6627 19.9706 98.3739 19.5895 97.1066 19.1527C95.9993 18.7702 95.0578 18.1221 94.2891 17.2257C93.5518 16.3664 93.2475 15.353 93.1989 14.2496C93.0889 11.7488 94.342 10.0717 96.4737 8.96544C98.0567 8.14327 99.7598 7.9263 101.52 8.13898C102.993 8.31598 104.383 8.73991 105.628 9.57208C106.242 9.98317 106.775 10.4856 107.208 11.0837C107.639 11.6803 107.622 12.3284 107.189 12.8922C106.731 13.4888 106.062 13.7215 105.396 13.4531C105.132 13.3461 104.885 13.1463 104.688 12.935C103.002 11.1279 100.127 10.8025 98.3211 11.4762C97.6724 11.7189 97.118 12.0771 96.878 12.7651C96.5122 13.81 96.6651 15.1632 98.0067 15.8611C99.0997 16.4292 100.274 16.7675 101.454 17.0887C102.675 17.4199 103.892 17.7681 105.018 18.3519C106.242 18.9857 107.234 19.885 107.664 21.2281C108.505 23.8602 107.784 26.2939 105.312 27.8712C103.946 28.7405 102.304 29.1758 100.153 29.1601Z" fill="#555555"/>
<path d="M36.417 8.21176C36.417 9.36795 36.417 10.517 36.417 11.6461C35.9241 11.589 35.4397 11.5047 34.9525 11.4819C32.0579 11.342 29.619 13.0663 28.6503 15.804C27.883 17.9737 27.9487 20.1404 28.9846 22.2244C30.9506 26.1769 36.167 26.9962 39.2503 23.8388C40.3004 22.764 40.8976 21.4522 41.1162 19.9706C41.1748 19.5738 41.1991 19.1712 41.242 18.7502C42.4335 18.7502 43.6451 18.7502 44.9067 18.7502C44.8667 19.2583 44.8482 19.7693 44.781 20.276C44.521 22.2615 43.7752 24.0458 42.485 25.5831C40.8962 27.4772 38.8673 28.6205 36.4256 29.0202C34.5353 29.33 32.6822 29.1672 30.8948 28.4635C28.6517 27.58 26.9429 26.0741 25.7884 23.9587C24.5797 21.7434 24.2768 19.3696 24.6197 16.896C24.9155 14.7578 25.7756 12.8736 27.2315 11.2735C28.646 9.71908 30.4005 8.74417 32.4508 8.29883C33.6824 8.03191 34.9254 7.99908 36.1741 8.1618C36.2541 8.17179 36.3313 8.19463 36.417 8.21176Z" fill="#555555"/>
<path d="M58.0957 29.16C58.0957 28.0196 58.0957 26.9105 58.0957 25.7885C58.4814 25.7472 58.8672 25.7329 59.243 25.6629C61.2975 25.2833 62.7863 24.1256 63.7707 22.3086C65.0666 19.9177 64.9652 16.2279 63.0906 13.8856C61.789 12.2583 60.0902 11.459 58.0042 11.4733C55.0681 11.4918 52.6521 13.4673 51.8691 16.4249C51.6976 17.0715 51.6691 17.7566 51.5776 18.4247C51.5648 18.5189 51.5662 18.6131 51.5605 18.7187C50.3417 18.7187 49.1373 18.7187 47.9371 18.7187C47.9371 18.3847 47.9157 18.0564 47.94 17.7309C48.13 15.2073 49.0287 12.9777 50.7804 11.1307C52.3163 9.51205 54.2108 8.54714 56.414 8.20171C58.2642 7.91195 60.0774 8.06468 61.829 8.74126C64.1308 9.6291 65.8596 11.1764 67.0226 13.3489C68.0913 15.3444 68.4313 17.484 68.2499 19.7236C68.0956 21.642 67.4898 23.4005 66.3682 24.9692C64.8823 27.0504 62.8749 28.3536 60.386 28.9202C59.643 29.0901 58.8843 29.1643 58.0957 29.16Z" fill="#555555"/>
<path d="M6.41681 41.1306C6.90481 41.2586 7.28481 41.5026 7.55681 41.8626C7.82881 42.2146 7.96481 42.6586 7.96481 43.1946C7.96481 43.9386 7.72081 44.5106 7.23281 44.9106C6.74481 45.3106 6.05281 45.5106 5.15681 45.5106H1.73681V36.9666H5.03681C5.90881 36.9666 6.58081 37.1626 7.05281 37.5546C7.52481 37.9386 7.76081 38.4906 7.76081 39.2106C7.76081 39.6746 7.64081 40.0706 7.40081 40.3986C7.16881 40.7266 6.84081 40.9706 6.41681 41.1306ZM2.46881 40.8426H4.92881C5.61681 40.8426 6.13681 40.7026 6.48881 40.4226C6.84081 40.1426 7.01681 39.7346 7.01681 39.1986C7.01681 38.1346 6.32081 37.6026 4.92881 37.6026H2.46881V40.8426ZM5.10881 44.8746C5.82881 44.8746 6.35681 44.7386 6.69281 44.4666C7.03681 44.1946 7.20881 43.7786 7.20881 43.2186C7.20881 42.0746 6.50881 41.5026 5.10881 41.5026H2.46881V44.8746H5.10881ZM13.4462 45.6066C12.6702 45.6066 11.9942 45.4306 11.4182 45.0786C10.8502 44.7266 10.4102 44.2226 10.0982 43.5666C9.79419 42.9106 9.64219 42.1346 9.64219 41.2386C9.64219 40.3426 9.79419 39.5666 10.0982 38.9106C10.4022 38.2546 10.8382 37.7506 11.4062 37.3986C11.9822 37.0466 12.6622 36.8706 13.4462 36.8706C14.2302 36.8706 14.9102 37.0466 15.4862 37.3986C16.0622 37.7506 16.5022 38.2546 16.8062 38.9106C17.1102 39.5586 17.2622 40.3306 17.2622 41.2266C17.2622 42.1226 17.1062 42.9026 16.7942 43.5666C16.4902 44.2226 16.0502 44.7266 15.4742 45.0786C14.9062 45.4306 14.2302 45.6066 13.4462 45.6066ZM13.4462 44.9466C14.4062 44.9466 15.1502 44.6226 15.6782 43.9746C16.2142 43.3266 16.4822 42.4106 16.4822 41.2266C16.4822 40.0426 16.2182 39.1306 15.6902 38.4906C15.1622 37.8506 14.4142 37.5306 13.4462 37.5306C12.4862 37.5306 11.7382 37.8546 11.2022 38.5026C10.6742 39.1426 10.4102 40.0506 10.4102 41.2266C10.4102 42.4026 10.6742 43.3186 11.2022 43.9746C11.7382 44.6226 12.4862 44.9466 13.4462 44.9466ZM22.742 45.6066C21.966 45.6066 21.29 45.4306 20.714 45.0786C20.146 44.7266 19.706 44.2226 19.394 43.5666C19.09 42.9106 18.938 42.1346 18.938 41.2386C18.938 40.3426 19.09 39.5666 19.394 38.9106C19.698 38.2546 20.134 37.7506 20.702 37.3986C21.278 37.0466 21.958 36.8706 22.742 36.8706C23.526 36.8706 24.206 37.0466 24.782 37.3986C25.358 37.7506 25.798 38.2546 26.102 38.9106C26.406 39.5586 26.558 40.3306 26.558 41.2266C26.558 42.1226 26.402 42.9026 26.09 43.5666C25.786 44.2226 25.346 44.7266 24.77 45.0786C24.202 45.4306 23.526 45.6066 22.742 45.6066ZM22.742 44.9466C23.702 44.9466 24.446 44.6226 24.974 43.9746C25.51 43.3266 25.778 42.4106 25.778 41.2266C25.778 40.0426 25.514 39.1306 24.986 38.4906C24.458 37.8506 23.71 37.5306 22.742 37.5306C21.782 37.5306 21.034 37.8546 20.498 38.5026C19.97 39.1426 19.706 40.0506 19.706 41.2266C19.706 42.4026 19.97 43.3186 20.498 43.9746C21.034 44.6226 21.782 44.9466 22.742 44.9466ZM33.8978 45.5106L29.3018 41.4186V45.5106H28.5578V36.9666H29.3018V40.9266L33.6698 36.9666H34.6538L30.0458 41.1426L34.9058 45.5106H33.8978ZM41.938 45.6066C41.266 45.6066 40.67 45.5186 40.15 45.3426C39.638 45.1586 39.182 44.8746 38.782 44.4906L39.094 43.9026C39.518 44.2786 39.946 44.5466 40.378 44.7066C40.818 44.8666 41.338 44.9466 41.938 44.9466C42.658 44.9466 43.218 44.7986 43.618 44.5026C44.018 44.2066 44.218 43.7906 44.218 43.2546C44.218 42.9426 44.118 42.6906 43.918 42.4986C43.726 42.2986 43.478 42.1426 43.174 42.0306C42.878 41.9186 42.482 41.8066 41.986 41.6946C41.33 41.5506 40.794 41.4026 40.378 41.2506C39.97 41.0906 39.626 40.8546 39.346 40.5426C39.066 40.2306 38.926 39.8146 38.926 39.2946C38.926 38.8146 39.05 38.3906 39.298 38.0226C39.546 37.6546 39.898 37.3706 40.354 37.1706C40.818 36.9706 41.354 36.8706 41.962 36.8706C42.546 36.8706 43.086 36.9666 43.582 37.1586C44.078 37.3426 44.506 37.6186 44.866 37.9866L44.554 38.5746C44.154 38.2146 43.746 37.9506 43.33 37.7826C42.914 37.6146 42.458 37.5306 41.962 37.5306C41.242 37.5306 40.678 37.6866 40.27 37.9986C39.87 38.3106 39.67 38.7386 39.67 39.2826C39.67 39.7546 39.846 40.1066 40.198 40.3386C40.55 40.5706 41.066 40.7666 41.746 40.9266L42.094 41.0106C42.734 41.1626 43.242 41.3106 43.618 41.4546C43.994 41.5986 44.314 41.8146 44.578 42.1026C44.842 42.3906 44.974 42.7746 44.974 43.2546C44.974 43.7186 44.85 44.1306 44.602 44.4906C44.354 44.8426 43.998 45.1186 43.534 45.3186C43.078 45.5106 42.546 45.6066 41.938 45.6066ZM52.3217 43.2306H47.7137L46.7297 45.5106H45.9617L49.6817 36.9666H50.3537L54.0617 45.5106H53.2937L52.3217 43.2306ZM52.0337 42.5826L50.0177 37.8666L47.9897 42.5826H52.0337ZM55.5924 36.9666H58.3404C59.7004 36.9666 60.7484 37.3346 61.4844 38.0706C62.2204 38.8066 62.5884 39.8586 62.5884 41.2266C62.5884 42.5946 62.2164 43.6506 61.4724 44.3946C60.7364 45.1386 59.6924 45.5106 58.3404 45.5106H55.5924V36.9666ZM58.3044 44.8626C59.4644 44.8626 60.3364 44.5586 60.9204 43.9506C61.5044 43.3346 61.7964 42.4266 61.7964 41.2266C61.7964 38.8186 60.6324 37.6146 58.3044 37.6146H56.3364V44.8626H58.3044ZM64.5835 36.9666H67.8715C68.7275 36.9666 69.3995 37.1746 69.8875 37.5906C70.3755 38.0066 70.6195 38.5786 70.6195 39.3066C70.6195 40.0426 70.3715 40.6226 69.8755 41.0466C69.3875 41.4626 68.7195 41.6706 67.8715 41.6706H65.3275V45.5106H64.5835V36.9666ZM67.8235 41.0226C68.4955 41.0226 69.0035 40.8746 69.3475 40.5786C69.6915 40.2826 69.8635 39.8586 69.8635 39.3066C69.8635 38.7626 69.6915 38.3426 69.3475 38.0466C69.0035 37.7506 68.4955 37.6026 67.8235 37.6026H65.3275V41.0226H67.8235ZM79.0022 45.5106H78.2342L77.1662 42.6666C77.0302 42.2826 76.8422 42.0266 76.6022 41.8986C76.3622 41.7626 76.0142 41.6946 75.5582 41.6946H73.1702V45.5106H72.4262V36.9666H75.7262C76.6142 36.9666 77.3022 37.1706 77.7902 37.5786C78.2782 37.9786 78.5222 38.5546 78.5222 39.3066C78.5222 39.8586 78.3742 40.3226 78.0782 40.6986C77.7902 41.0746 77.3742 41.3386 76.8302 41.4906C77.0782 41.5306 77.2902 41.6346 77.4662 41.8026C77.6422 41.9706 77.7902 42.2186 77.9102 42.5466L79.0022 45.5106ZM75.6782 41.0466C77.0782 41.0466 77.7782 40.4626 77.7782 39.2946C77.7782 38.1666 77.0782 37.6026 75.6782 37.6026H73.1582V41.0466H75.6782ZM86.3173 43.2306H81.7093L80.7253 45.5106H79.9573L83.6773 36.9666H84.3493L88.0573 45.5106H87.2893L86.3173 43.2306ZM86.0293 42.5826L84.0133 37.8666L81.9853 42.5826H86.0293ZM92.1815 45.6066C91.5095 45.6066 90.9135 45.5186 90.3935 45.3426C89.8815 45.1586 89.4255 44.8746 89.0255 44.4906L89.3375 43.9026C89.7615 44.2786 90.1895 44.5466 90.6215 44.7066C91.0615 44.8666 91.5815 44.9466 92.1815 44.9466C92.9015 44.9466 93.4615 44.7986 93.8615 44.5026C94.2615 44.2066 94.4615 43.7906 94.4615 43.2546C94.4615 42.9426 94.3615 42.6906 94.1615 42.4986C93.9695 42.2986 93.7215 42.1426 93.4175 42.0306C93.1215 41.9186 92.7255 41.8066 92.2295 41.6946C91.5735 41.5506 91.0375 41.4026 90.6215 41.2506C90.2135 41.0906 89.8695 40.8546 89.5895 40.5426C89.3095 40.2306 89.1695 39.8146 89.1695 39.2946C89.1695 38.8146 89.2935 38.3906 89.5415 38.0226C89.7895 37.6546 90.1415 37.3706 90.5975 37.1706C91.0615 36.9706 91.5975 36.8706 92.2055 36.8706C92.7895 36.8706 93.3295 36.9666 93.8255 37.1586C94.3215 37.3426 94.7495 37.6186 95.1095 37.9866L94.7975 38.5746C94.3975 38.2146 93.9895 37.9506 93.5735 37.7826C93.1575 37.6146 92.7015 37.5306 92.2055 37.5306C91.4855 37.5306 90.9215 37.6866 90.5135 37.9986C90.1135 38.3106 89.9135 38.7386 89.9135 39.2826C89.9135 39.7546 90.0895 40.1066 90.4415 40.3386C90.7935 40.5706 91.3095 40.7666 91.9895 40.9266L92.3375 41.0106C92.9775 41.1626 93.4855 41.3106 93.8615 41.4546C94.2375 41.5986 94.5575 41.8146 94.8215 42.1026C95.0855 42.3906 95.2175 42.7746 95.2175 43.2546C95.2175 43.7186 95.0935 44.1306 94.8455 44.4906C94.5975 44.8426 94.2415 45.1186 93.7775 45.3186C93.3215 45.5106 92.7895 45.6066 92.1815 45.6066ZM97.0088 36.9666H97.7528V45.5106H97.0088V36.9666ZM100.082 36.9666H102.83C104.19 36.9666 105.238 37.3346 105.974 38.0706C106.71 38.8066 107.078 39.8586 107.078 41.2266C107.078 42.5946 106.706 43.6506 105.962 44.3946C105.226 45.1386 104.182 45.5106 102.83 45.5106H100.082V36.9666ZM102.794 44.8626C103.954 44.8626 104.826 44.5586 105.41 43.9506C105.994 43.3346 106.286 42.4266 106.286 41.2266C106.286 38.8186 105.122 37.6146 102.794 37.6146H100.826V44.8626H102.794Z" fill="#555555"/>
</svg>
