<svg width="88" height="25" viewBox="0 0 88 25" fill="none" xmlns="http://www.w3.org/2000/svg">
<path d="M3.16423 21.8154C3.16423 22.1247 3.17362 22.4339 3.16189 22.7432C3.13492 23.4801 2.58963 24.087 1.88955 24.1702C1.07924 24.2662 0.41668 23.8597 0.216154 23.1333C0.176284 22.9893 0.154003 22.8346 0.154003 22.6847C0.150485 15.7937 0.149313 8.90272 0.154003 2.01175C0.155176 0.916361 1.10152 0.241556 2.14402 0.574272C2.75497 0.769919 3.16189 1.33929 3.16423 2.02815C3.16893 3.38244 3.16541 4.73674 3.16541 6.09103C3.16541 7.22039 3.16541 8.35092 3.16541 9.48028C3.16541 9.55057 3.16541 9.62087 3.16541 9.69584C3.44333 9.39242 3.68842 9.08196 3.97806 8.81837C5.67022 7.27545 7.64499 6.66391 9.90823 7.10324C12.1422 7.5367 13.7839 8.80899 14.9143 10.7549C15.9041 12.4595 16.2207 14.3187 16.1116 16.2658C16.0073 18.1368 15.4667 19.8624 14.3292 21.3667C13.0545 23.0513 11.3647 24.0495 9.24333 24.2451C6.86282 24.4654 4.89861 23.6031 3.28267 21.8822C3.25688 21.854 3.23811 21.8189 3.21583 21.7861C3.19824 21.7966 3.18065 21.806 3.16423 21.8154ZM7.92174 21.4979C9.77924 21.4803 11.102 20.7891 12.08 19.4559C12.786 18.4941 13.1307 17.3952 13.221 16.2119C13.3242 14.8729 13.1401 13.583 12.4811 12.3997C11.5429 10.7127 10.1134 9.77785 8.15627 9.76965C6.19558 9.76145 4.71567 10.66 3.79396 12.3658C2.75849 14.2801 2.71628 16.3045 3.53245 18.2961C4.35801 20.31 5.89889 21.4135 7.92174 21.4979Z" fill="#B4B5B5"/>
<path d="M61.3273 14.8903C61.4446 14.7849 61.5184 14.7216 61.59 14.656C64.0678 12.3797 66.5468 10.1034 69.0247 7.82715C69.3061 7.56824 69.6145 7.35853 70.005 7.30347C70.657 7.21209 71.0909 7.54598 71.4251 8.04857C71.723 8.4961 71.7019 9.035 71.377 9.47667C71.268 9.62429 71.1355 9.75784 70.9983 9.87968C69.2381 11.4519 67.4744 13.0194 65.7119 14.5892C65.6579 14.6373 65.6063 14.6865 65.5477 14.7416C66.3557 15.6167 67.1519 16.4813 67.9493 17.3447C69.1736 18.6709 70.3955 19.9982 71.621 21.3232C72.0138 21.7485 72.2131 22.2359 72.056 22.8111C71.8977 23.3922 71.4767 23.7378 70.915 23.8866C70.3767 24.0283 69.9007 23.8842 69.5102 23.4683C67.4498 21.2764 65.3859 19.0891 63.3243 16.8995C63.2974 16.8714 63.2798 16.8327 63.2528 16.7917C63.1825 16.8503 63.1367 16.8855 63.0933 16.9241C62.5621 17.4009 62.0356 17.8836 61.4985 18.3546C61.373 18.4647 61.3214 18.5748 61.3226 18.7435C61.3296 19.9455 61.3238 21.1487 61.3285 22.3507C61.3296 22.8216 61.2065 23.2387 60.8535 23.5667C60.3833 24.0025 59.831 24.0822 59.2505 23.8573C58.6829 23.6382 58.3816 23.1918 58.3241 22.585C58.3171 22.5123 58.3171 22.4397 58.3171 22.3671C58.3171 15.6143 58.3171 8.86162 58.3159 2.10772C58.3159 1.74805 58.3816 1.41417 58.5973 1.1166C58.9738 0.598778 59.6199 0.376188 60.2531 0.551918C60.8336 0.712418 61.2663 1.24781 61.3156 1.87107C61.3249 1.99642 61.3273 2.12177 61.3273 2.24713C61.3273 6.35687 61.3273 10.4666 61.3273 14.5764C61.3273 14.6619 61.3273 14.7474 61.3273 14.8903Z" fill="#555555"/>
<path d="M80.7102 24.2826C79.5258 24.2651 78.0541 23.9769 76.695 23.2341C75.853 22.7737 75.1506 22.1481 74.5713 21.3866C74.1327 20.8102 74.1749 20.1214 74.6499 19.6586C75.208 19.1162 75.9328 19.0553 76.5132 19.5227C76.7325 19.6996 76.9201 19.9187 77.1195 20.1202C78.3848 21.3936 79.921 21.9466 81.7023 21.8224C82.3625 21.7767 82.9793 21.5787 83.5598 21.2484C84.6257 20.6427 84.7383 18.7917 83.6419 18.0548C82.9418 17.5838 82.1537 17.3214 81.3587 17.0707C80.308 16.7403 79.2502 16.4275 78.2101 16.069C77.3013 15.755 76.5285 15.2232 75.8976 14.4874C75.2925 13.7822 75.0427 12.9504 75.0028 12.0448C74.9125 9.99226 75.941 8.61571 77.6906 7.70777C78.9899 7.03296 80.3877 6.85489 81.8324 7.02945C83.0414 7.17472 84.1824 7.52266 85.2038 8.20567C85.7081 8.54307 86.1455 8.95545 86.5008 9.44632C86.855 9.93603 86.8409 10.4679 86.4856 10.9307C86.1091 11.4204 85.5603 11.6113 85.0139 11.3911C84.7969 11.3032 84.5941 11.1392 84.4322 10.9658C83.0485 9.48264 80.6891 9.21553 79.2068 9.7685C78.6744 9.96766 78.2194 10.2617 78.0224 10.8264C77.7222 11.684 77.8477 12.7946 78.9488 13.3675C79.8459 13.8337 80.8099 14.1114 81.7785 14.375C82.7799 14.6468 83.7791 14.9326 84.7031 15.4118C85.7081 15.9319 86.5219 16.67 86.8749 17.7724C87.5656 19.9327 86.9734 21.9302 84.9447 23.2247C83.8236 23.9382 82.4762 24.2955 80.7102 24.2826Z" fill="#555555"/>
<path d="M28.3988 7.08906C28.3988 8.03801 28.3988 8.98109 28.3988 9.90778C27.9943 9.86092 27.5967 9.7918 27.1968 9.77305C24.821 9.65824 22.8193 11.0735 22.0242 13.3205C21.3945 15.1012 21.4484 16.8796 22.2986 18.59C23.9122 21.834 28.1936 22.5065 30.7242 19.915C31.5861 19.0329 32.0763 17.9562 32.2557 16.7402C32.3038 16.4145 32.3237 16.0841 32.3589 15.7385C33.3369 15.7385 34.3313 15.7385 35.3668 15.7385C35.334 16.1556 35.3187 16.575 35.2636 16.9909C35.0502 18.6205 34.4381 20.0849 33.3791 21.3466C32.0751 22.9013 30.4099 23.8397 28.4059 24.1677C26.8544 24.4219 25.3335 24.2884 23.8665 23.7108C22.0254 22.9856 20.6229 21.7497 19.6754 20.0134C18.6833 18.1952 18.4347 16.247 18.7161 14.2167C18.9589 12.4617 19.6648 10.9153 20.8598 9.602C22.0207 8.3262 23.4607 7.52604 25.1435 7.16053C26.1543 6.94145 27.1746 6.9145 28.1995 7.04806C28.2651 7.05626 28.3285 7.07501 28.3988 7.08906Z" fill="#555555"/>
<path d="M46.1916 24.2827C46.1916 23.3466 46.1916 22.4364 46.1916 21.5155C46.5082 21.4816 46.8249 21.4698 47.1333 21.4124C48.8196 21.1008 50.0415 20.1507 50.8494 18.6593C51.9131 16.697 51.8298 13.6686 50.2913 11.7461C49.223 10.4106 47.8287 9.75449 46.1166 9.76621C43.7067 9.78144 41.7238 11.4028 41.0811 13.8303C40.9404 14.361 40.917 14.9233 40.8419 15.4716C40.8314 15.5489 40.8325 15.6262 40.8278 15.7129C39.8276 15.7129 38.839 15.7129 37.854 15.7129C37.854 15.4388 37.8364 15.1693 37.8563 14.9022C38.0123 12.8309 38.7499 11.001 40.1876 9.48504C41.4482 8.15652 43.0031 7.36456 44.8114 7.08105C46.33 6.84323 47.8181 6.96858 49.2558 7.52389C51.145 8.25258 52.5639 9.52253 53.5184 11.3056C54.3956 12.9434 54.6747 14.6995 54.5258 16.5377C54.3991 18.1122 53.9019 19.5556 52.9814 20.8431C51.7618 22.5512 50.1142 23.6208 48.0714 24.0859C47.4616 24.2253 46.8389 24.2862 46.1916 24.2827Z" fill="#555555"/>
</svg>
