<svg width="25" height="25" viewBox="0 0 25 25" fill="none" xmlns="http://www.w3.org/2000/svg">
<path fill-rule="evenodd" clip-rule="evenodd" d="M12.1509 0.489014C5.52488 0.489014 0.150879 5.86101 0.150879 12.489C0.150879 19.116 5.52488 24.489 12.1509 24.489C18.7779 24.489 24.1509 19.116 24.1509 12.489C24.1509 5.86101 18.7779 0.489014 12.1509 0.489014ZM19.1249 18.046V17.811L18.0329 16.739C17.9369 16.666 17.8889 16.545 17.9089 16.426V8.55201C17.8889 8.43301 17.9369 8.31201 18.0329 8.23901L19.1509 7.16701V6.93201H15.2819L12.5239 13.812L9.38588 6.93201H5.32688V7.16701L6.63488 8.74201C6.76288 8.85701 6.82888 9.02701 6.81088 9.19901V15.387C6.84888 15.61 6.77888 15.838 6.62188 16.001L5.15088 17.785V18.02H9.32088V17.785L7.84988 16.001C7.69188 15.838 7.61688 15.612 7.64788 15.387V10.035L11.3079 18.02H11.7329L14.8759 10.035V16.4C14.8759 16.57 14.8759 16.602 14.7649 16.713L13.6349 17.811V18.046H19.1249Z" fill="#979797"/>
</svg>
