<svg width="25" height="25" viewBox="0 0 25 25" fill="none" xmlns="http://www.w3.org/2000/svg">
<path d="M12.1509 0.489014C5.52388 0.489014 0.150879 5.86201 0.150879 12.489C0.150879 19.116 5.52388 24.489 12.1509 24.489C18.7779 24.489 24.1509 19.116 24.1509 12.489C24.1509 5.86201 18.7779 0.489014 12.1509 0.489014ZM18.2169 10.134C18.3999 14.174 15.3869 18.678 10.0529 18.678C8.43088 18.678 6.92188 18.202 5.65088 17.387C7.17488 17.567 8.69588 17.143 9.90288 16.198C8.64688 16.175 7.58588 15.344 7.21888 14.203C7.66988 14.289 8.11388 14.264 8.51688 14.154C7.13588 13.876 6.18188 12.632 6.21288 11.301C6.60088 11.516 7.04288 11.645 7.51388 11.66C6.23488 10.805 5.87288 9.11601 6.62488 7.82501C8.04088 9.56301 10.1579 10.706 12.5449 10.826C12.1259 9.03001 13.4889 7.29901 15.3439 7.29901C16.1689 7.29901 16.9159 7.64801 17.4399 8.20601C18.0939 8.07801 18.7099 7.83801 19.2639 7.50901C19.0489 8.18001 18.5939 8.74201 18.0009 9.09801C18.5819 9.02801 19.1359 8.87401 19.6499 8.64501C19.2659 9.22301 18.7799 9.72901 18.2169 10.134Z" fill="#979797"/>
</svg>
